<svg width="auto" height="auto" viewBox="0 0 64 64" fill="none" xmlns="http://www.w3.org/2000/svg">
    <circle cx="32" cy="32" r="24" fill="url(#paint0_linear_21_2680)"/>
    <g filter="url(#filter0_d_21_2680)">
        <path d="M19.25 32C19.25 24.9584 24.9584 19.25 32 19.25C39.0416 19.25 44.75 24.9584 44.75 32C44.75 35.8516 42.7738 37.2588 41.3633 37.2735C39.9791 37.288 38 35.9569 38 32V25.625C38 25.0037 37.4963 24.5 36.875 24.5C36.2537 24.5 35.75 25.0037 35.75 25.625V26.4051C34.574 25.23 33.0125 24.5 31.25 24.5C27.3939 24.5 24.5 27.9943 24.5 32C24.5 36.0057 27.3939 39.5 31.25 39.5C33.5429 39.5 35.4955 38.2645 36.7019 36.4207C37.713 38.4159 39.4329 39.5437 41.3867 39.5234C44.4762 39.4912 47 36.5859 47 32C47 23.7157 40.2843 17 32 17C23.7157 17 17 23.7157 17 32C17 40.2843 23.7157 47 32 47C33.8526 47 35.6292 46.6636 37.2703 46.0477C37.852 45.8293 38.1466 45.1808 37.9282 44.5991C37.7099 44.0174 37.0614 43.7228 36.4797 43.9411C35.0875 44.4637 33.5784 44.75 32 44.75C24.9584 44.75 19.25 39.0416 19.25 32ZM35.75 32C35.75 35.0359 33.6071 37.25 31.25 37.25C28.8929 37.25 26.75 35.0359 26.75 32C26.75 28.9641 28.8929 26.75 31.25 26.75C33.6071 26.75 35.75 28.9641 35.75 32Z"
              fill="white"/>
        <path d="M19.5 32C19.5 25.0965 25.0965 19.5 32 19.5C38.9035 19.5 44.5 25.0965 44.5 32C44.5 35.7657 42.5881 37.0107 41.3607 37.0235C40.7493 37.0299 39.9795 36.7384 39.3569 35.9688C38.7345 35.1992 38.25 33.938 38.25 32V25.625C38.25 24.8656 37.6344 24.25 36.875 24.25C36.1156 24.25 35.5 24.8656 35.5 25.625V25.8348C34.3401 24.8492 32.8783 24.25 31.25 24.25C27.226 24.25 24.25 27.888 24.25 32C24.25 36.112 27.226 39.75 31.25 39.75C33.4941 39.75 35.4182 38.6131 36.6759 36.8971C37.7436 38.7394 39.45 39.7936 41.3893 39.7734C44.6677 39.7392 47.25 36.6646 47.25 32C47.25 23.5777 40.4223 16.75 32 16.75C23.5777 16.75 16.75 23.5777 16.75 32C16.75 40.4223 23.5777 47.25 32 47.25C33.883 47.25 35.6894 46.9081 37.3582 46.2817C38.0692 46.0149 38.4291 45.2222 38.1623 44.5113C37.8954 43.8003 37.1028 43.4402 36.3918 43.7071C35.0273 44.2192 33.548 44.5 32 44.5C25.0965 44.5 19.5 38.9035 19.5 32ZM35.5 32C35.5 34.926 33.4424 37 31.25 37C29.0576 37 27 34.926 27 32C27 29.074 29.0576 27 31.25 27C33.4424 27 35.5 29.074 35.5 32Z"
              stroke="white" stroke-width="0.5"/>
    </g>
    <defs>
        <filter id="filter0_d_21_2680" x="14.5" y="15.5" width="35" height="35" filterUnits="userSpaceOnUse"
                color-interpolation-filters="sRGB">
            <feFlood flood-opacity="0" result="BackgroundImageFix"/>
            <feColorMatrix in="SourceAlpha" type="matrix" values="0 0 0 0 0 0 0 0 0 0 0 0 0 0 0 0 0 0 127 0"
                           result="hardAlpha"/>
            <feOffset dy="1"/>
            <feGaussianBlur stdDeviation="1"/>
            <feComposite in2="hardAlpha" operator="out"/>
            <feColorMatrix type="matrix" values="0 0 0 0 0 0 0 0 0 0 0 0 0 0 0 0 0 0 0.4 0"/>
            <feBlend mode="normal" in2="BackgroundImageFix" result="effect1_dropShadow_21_2680"/>
            <feBlend mode="normal" in="SourceGraphic" in2="effect1_dropShadow_21_2680" result="shape"/>
        </filter>
        <linearGradient id="paint0_linear_21_2680" x1="8" y1="8" x2="56" y2="56" gradientUnits="userSpaceOnUse">
            <stop stop-color="#3D8361"/>
            <stop offset="1" stop-color="#1C6758"/>
        </linearGradient>
    </defs>
</svg>
