<svg width="auto" height="auto" viewBox="0 0 48 48" fill="none" xmlns="http://www.w3.org/2000/svg">
    <circle cx="24" cy="24" r="24" fill="url(#paint0_linear_22_360)"/>
    <g filter="url(#filter0_d_22_360)">
        <path d="M11.25 24C11.25 16.9584 16.9584 11.25 24 11.25C31.0416 11.25 36.75 16.9584 36.75 24C36.75 27.8516 34.7738 29.2588 33.3633 29.2735C31.9791 29.288 30 27.9569 30 24V17.625C30 17.0037 29.4963 16.5 28.875 16.5C28.2537 16.5 27.75 17.0037 27.75 17.625V18.4051C26.574 17.23 25.0125 16.5 23.25 16.5C19.3939 16.5 16.5 19.9943 16.5 24C16.5 28.0057 19.3939 31.5 23.25 31.5C25.5429 31.5 27.4955 30.2645 28.7019 28.4207C29.713 30.4159 31.4329 31.5437 33.3867 31.5234C36.4762 31.4912 39 28.5859 39 24C39 15.7157 32.2843 9 24 9C15.7157 9 9 15.7157 9 24C9 32.2843 15.7157 39 24 39C25.8526 39 27.6292 38.6636 29.2703 38.0477C29.852 37.8293 30.1466 37.1808 29.9282 36.5991C29.7099 36.0174 29.0614 35.7228 28.4797 35.9411C27.0875 36.4637 25.5784 36.75 24 36.75C16.9584 36.75 11.25 31.0416 11.25 24ZM27.75 24C27.75 27.0359 25.6071 29.25 23.25 29.25C20.8929 29.25 18.75 27.0359 18.75 24C18.75 20.9641 20.8929 18.75 23.25 18.75C25.6071 18.75 27.75 20.9641 27.75 24Z"
              fill="white"/>
        <path d="M11.5 24C11.5 17.0965 17.0965 11.5 24 11.5C30.9035 11.5 36.5 17.0965 36.5 24C36.5 27.7657 34.5881 29.0107 33.3607 29.0235C32.7493 29.0299 31.9795 28.7384 31.3569 27.9688C30.7345 27.1992 30.25 25.938 30.25 24V17.625C30.25 16.8656 29.6344 16.25 28.875 16.25C28.1156 16.25 27.5 16.8656 27.5 17.625V17.8348C26.3401 16.8492 24.8783 16.25 23.25 16.25C19.226 16.25 16.25 19.888 16.25 24C16.25 28.112 19.226 31.75 23.25 31.75C25.4941 31.75 27.4182 30.6131 28.6759 28.8971C29.7436 30.7394 31.45 31.7936 33.3893 31.7734C36.6677 31.7392 39.25 28.6646 39.25 24C39.25 15.5777 32.4223 8.75 24 8.75C15.5777 8.75 8.75 15.5777 8.75 24C8.75 32.4223 15.5777 39.25 24 39.25C25.883 39.25 27.6894 38.9081 29.3582 38.2817C30.0692 38.0149 30.4291 37.2222 30.1623 36.5113C29.8954 35.8003 29.1028 35.4402 28.3918 35.7071C27.0273 36.2192 25.548 36.5 24 36.5C17.0965 36.5 11.5 30.9035 11.5 24ZM27.5 24C27.5 26.926 25.4424 29 23.25 29C21.0576 29 19 26.926 19 24C19 21.074 21.0576 19 23.25 19C25.4424 19 27.5 21.074 27.5 24Z"
              stroke="white" stroke-width="0.5"/>
    </g>
    <defs>
        <filter id="filter0_d_22_360" x="6.5" y="7.5" width="35" height="35" filterUnits="userSpaceOnUse"
                color-interpolation-filters="sRGB">
            <feFlood flood-opacity="0" result="BackgroundImageFix"/>
            <feColorMatrix in="SourceAlpha" type="matrix" values="0 0 0 0 0 0 0 0 0 0 0 0 0 0 0 0 0 0 127 0"
                           result="hardAlpha"/>
            <feOffset dy="1"/>
            <feGaussianBlur stdDeviation="1"/>
            <feComposite in2="hardAlpha" operator="out"/>
            <feColorMatrix type="matrix" values="0 0 0 0 0 0 0 0 0 0 0 0 0 0 0 0 0 0 0.4 0"/>
            <feBlend mode="normal" in2="BackgroundImageFix" result="effect1_dropShadow_22_360"/>
            <feBlend mode="normal" in="SourceGraphic" in2="effect1_dropShadow_22_360" result="shape"/>
        </filter>
        <linearGradient id="paint0_linear_22_360" x1="0" y1="0" x2="48" y2="48" gradientUnits="userSpaceOnUse">
            <stop stop-color="#3D8361"/>
            <stop offset="1" stop-color="#1C6758"/>
        </linearGradient>
    </defs>
</svg>
