<svg width="auto" height="auto" viewBox="0 0 64 64" fill="none" xmlns="http://www.w3.org/2000/svg">
    <g filter="url(#filter0_i_3_370)">
        <path fill-rule="evenodd" clip-rule="evenodd"
              d="M58.975 24.075C58.6813 23.0813 58.325 22.1 57.9188 21.1375C56.5063 17.7938 54.4813 14.7937 51.9063 12.2188C49.3313 9.64375 46.3313 7.61875 42.9875 6.20625C39.525 4.74375 35.85 4 32.0625 4C28.1563 4 24.2625 4.825 20.7125 6.39375C20.1688 6.63125 19.6375 6.8875 19.1125 7.1625C15.225 9.1875 11.8625 12.1 9.30626 15.6438C8.91876 16.1813 8.54376 16.7375 8.19376 17.3062C5.62501 21.45 4.18751 26.1875 4.01876 31.0625C4.00626 31.3937 4.00001 31.7313 4.00001 32.0625C4.00001 35.85 4.74376 39.525 6.20626 42.9875C7.61876 46.3312 9.64376 49.3312 12.2188 51.9062C14.1375 53.825 16.2938 55.4375 18.65 56.7188C19.4563 57.1562 20.2875 57.5563 21.1375 57.9188C24.6 59.3813 28.275 60.125 32.0625 60.125C35.85 60.125 39.525 59.3813 42.9875 57.9188C46.3313 56.5063 49.3313 54.4813 51.9063 51.9062C54.4813 49.3312 56.5063 46.3312 57.9188 42.9875C58.175 42.3812 58.4063 41.7688 58.6188 41.15C59.6188 38.2375 60.125 35.1875 60.125 32.0625C60.125 29.3312 59.7375 26.6562 58.975 24.075ZM45.6375 18.775C45.8563 19.5 46.0813 20.2563 46.1313 21C46.3125 23.7812 44.75 25.6313 44.15 26.2938C46.4563 27.0688 48.1688 28.2188 49.25 29.7188C50.1313 30.9375 50.575 32.3688 50.5563 33.8875C51.5625 33.5938 52.5688 33.375 53.5188 33.375C53.925 33.375 54.3188 33.4187 54.7 33.5062C54.75 32.6687 54.7563 31.8188 54.7125 30.9563C54.65 29.675 54.4813 28.4187 54.2125 27.2C53.1688 22.4375 50.6188 18.2313 47.0938 15.1C47.025 15.6875 46.9375 16.25 46.7813 16.775C46.525 17.6438 46.1125 18.2812 45.6188 18.725C45.6219 18.7344 45.625 18.7422 45.6281 18.75C45.6313 18.7578 45.6344 18.7656 45.6375 18.775ZM15.825 16.2188V17.7375L15.2188 17.9563C15.3244 18.0308 15.3929 18.0251 15.4674 18.0189L15.4688 18.0187C15.9688 17.9687 16.6625 17.5 17.1375 17.0687C16.9625 16.6062 16.7938 16.0125 16.7625 15.3125C16.4438 15.6062 16.1313 15.9062 15.825 16.2188ZM21.3813 47.7438C21.5625 47.7438 21.8375 47.7437 21.9313 47.725L21.9338 47.7227L21.9364 47.7208C21.9401 47.7182 21.9419 47.7169 21.9375 47.7125C23.1875 46.7188 24.3938 46.5812 25.1875 46.65C25.3438 46.6625 25.4938 46.6875 25.6375 46.7125C26.4875 45.9062 27.5438 45.525 28.325 45.2437C29.5625 44.8 29.7938 44.6375 29.9938 44.1188C30.125 43.7812 30.2688 43.4312 30.4438 43.0875C30.3902 43.0424 30.3353 42.9972 30.2798 42.9515C30.2122 42.896 30.1436 42.8396 30.075 42.7812C28.5313 41.5 28.6813 40.0125 28.8188 39.4375C28.9563 38.875 29.2813 38.1688 30.05 37.6063L30.025 37.5812C29.7 37.275 29.4688 36.9562 29.2875 36.6437C28.2625 36.6 27.55 36.2125 27.0938 35.825C26.9313 35.6875 26.7938 35.5438 26.6688 35.3938C25.6438 35.3188 24.6313 35.0187 23.725 34.75C23.3625 34.6437 22.8438 34.4937 22.55 34.4312C21.8063 34.6187 21.1313 34.5938 20.5375 34.4188C20.35 34.4563 20.1625 34.4813 19.9688 34.4875C18.7563 34.5375 17.575 34.0125 16.4563 32.9313C15.975 33.1063 15.0938 33.6 14.425 33.975C13.7438 34.3625 12.975 34.7937 12.0875 35.2375C11.2688 35.65 10.4813 35.9062 9.73126 36.0125C10.6625 41.3125 13.45 45.9875 17.3938 49.3438C17.8125 48.8375 18.3125 48.4437 18.9 48.175C19.85 47.7313 20.775 47.7375 21.3813 47.7438ZM30.9563 54.7125C40.2688 55.1562 48.2563 50.2563 52.1688 42.7625C52.5063 42.1188 52.8125 41.4562 53.0625 40.7812L53.025 40.8562C52.6375 40.425 52.375 39.8813 52.2688 39.275C52.0688 39.3313 51.8438 39.4 51.5875 39.4813C50.5313 39.8312 49.6438 40.0062 48.8813 40.0312C47.7188 40.0625 46.7438 39.75 45.9813 39.1C45.4063 38.6062 44.7063 37.6937 44.6625 36.1687C44.65 35.55 44.7438 34.9562 44.8188 34.4812C44.8563 34.275 44.8938 34.0375 44.9 33.9125C44.9188 33.5562 44.85 33.2937 44.6625 33.0375C44.4375 32.725 43.8125 32.1187 42.1625 31.5938C39.8313 30.85 38.4188 29.6125 37.9625 27.9187C37.3015 25.4618 39.0234 23.5649 39.7637 22.7493L39.7688 22.7437C39.8125 22.7 39.85 22.6563 39.8813 22.6188C40.4625 21.9625 40.5063 21.6562 40.4938 21.4062C40.4688 21.2188 40.325 20.7313 40.225 20.4062L40.2076 20.3469C40.0431 19.7867 39.8589 19.1594 39.7563 18.5437C39.5375 17.2187 39.7688 16.1188 40.4375 15.2688C40.725 14.8938 41.0875 14.6 41.4938 14.3813C41.5188 14.1625 41.5438 13.9437 41.5625 13.7625C41.6313 13.0813 41.7063 12.3438 41.8563 11.6188C41.7875 11.5875 41.725 11.5563 41.6625 11.525C38.7438 10.1562 35.4875 9.3875 32.0563 9.3875C29.1 9.3875 26.2563 9.9375 23.5688 11.025C23.725 12.375 23.5125 13.9062 22.4813 15.275C22.5 15.3125 22.5188 15.3562 22.5313 15.3938L22.5317 15.3947C22.8005 16.0575 23.2998 17.2882 22.8 18.7C22.3563 19.9313 21.1375 21.0688 20.6313 21.5C19.7813 22.2188 18.4188 23.1562 16.7438 23.5125C16.2875 23.6063 15.8375 23.6562 15.3938 23.6562C14 23.6562 12.6938 23.1875 11.5875 22.275C10.4375 24.6812 9.70626 27.3063 9.46876 30.0438C9.48439 30.0688 9.50001 30.0922 9.51564 30.1156C9.53126 30.1391 9.54689 30.1625 9.56251 30.1875C10.325 29.8062 11.0063 29.425 11.6625 29.0563L11.7614 29.0011C13.0632 28.2742 14.1933 27.6432 15.4125 27.375C17.1 27 18.6688 27.3937 19.9688 28.5062C20.3188 28.4187 20.6813 28.3937 21.05 28.4375C21.4438 28.4813 21.8125 28.6 22.15 28.7812C23.2063 28.725 24.275 29.0375 25.3188 29.35L25.3874 29.3703C25.8382 29.5038 26.5521 29.7153 26.95 29.7688C28.3375 29.025 29.4438 29.4125 30 29.7313C30.4875 30.0125 30.8813 30.4188 31.1375 30.9062C31.7938 30.9937 32.375 31.2437 32.8813 31.6562C33.4813 32.1437 33.7938 32.7187 33.9813 33.1937C34.7438 33.1937 35.25 33.2125 35.6938 33.2562C36.1313 33.3 37.4688 33.4375 38.3688 34.5688C39.375 35.8375 39.0563 37.2187 38.8625 38.0437C38.8313 38.175 38.8 38.3187 38.7688 38.4688C38.7313 38.6688 38.6688 38.8875 38.575 39.1125C38.6313 39.1313 38.6875 39.15 38.7375 39.1688C39.7125 39.5375 40.4188 40.2875 40.6813 41.2375C40.8313 41.7938 41.0313 43.2188 39.6063 44.5188C39.25 44.8438 38.7813 45.175 38.125 45.5687C36.9563 46.2687 35.9313 46.4375 35.15 46.425C33.9576 49.2031 31.6553 50.0356 30.2548 50.542L30.25 50.5438C30.05 50.6125 29.8063 50.7 29.6313 50.775C29.1813 51.6938 28.5188 52.325 27.6688 52.6375C26.5375 53.0563 25.5688 52.75 24.9688 52.475C24.5063 52.775 24.05 52.975 23.6125 53.1063C25.9 54.0312 28.3688 54.5875 30.9563 54.7125Z"
              fill="url(#paint0_linear_3_370)"/>
        <path d="M52.1688 42.7625C48.2563 50.2563 40.2688 55.1562 30.9563 54.7125C28.3688 54.5875 25.9 54.0312 23.6125 53.1063C24.05 52.975 24.5063 52.775 24.9688 52.475C25.5688 52.75 26.5375 53.0563 27.6688 52.6375C28.5188 52.325 29.1813 51.6938 29.6313 50.775C29.8063 50.7 30.05 50.6125 30.25 50.5438L30.2548 50.542C31.6553 50.0356 33.9576 49.2031 35.15 46.425C35.9313 46.4375 36.9563 46.2687 38.125 45.5687C38.7813 45.175 39.25 44.8438 39.6063 44.5188C41.0313 43.2188 40.8313 41.7938 40.6813 41.2375C40.4188 40.2875 39.7125 39.5375 38.7375 39.1688C38.6875 39.15 38.6313 39.1313 38.575 39.1125C38.6688 38.8875 38.7313 38.6688 38.7688 38.4688C38.8 38.3187 38.8313 38.175 38.8625 38.0437C39.0563 37.2187 39.375 35.8375 38.3688 34.5688C37.4688 33.4375 36.1313 33.3 35.6938 33.2562C35.25 33.2125 34.7438 33.1937 33.9813 33.1937C33.7938 32.7187 33.4813 32.1437 32.8813 31.6562C32.375 31.2437 31.7938 30.9937 31.1375 30.9062C30.8813 30.4188 30.4875 30.0125 30 29.7313C29.4438 29.4125 28.3375 29.025 26.95 29.7688C26.5521 29.7153 25.8382 29.5038 25.3874 29.3703L25.3188 29.35C24.275 29.0375 23.2063 28.725 22.15 28.7812C21.8125 28.6 21.4438 28.4813 21.05 28.4375C20.6813 28.3937 20.3188 28.4187 19.9688 28.5062C18.6688 27.3937 17.1 27 15.4125 27.375C14.1933 27.6432 13.0632 28.2742 11.7614 29.0011L11.6625 29.0563C11.0063 29.425 10.325 29.8062 9.56251 30.1875C9.54689 30.1625 9.53126 30.1391 9.51564 30.1156C9.50001 30.0922 9.48439 30.0688 9.46876 30.0438C9.70626 27.3063 10.4375 24.6812 11.5875 22.275C12.6938 23.1875 14 23.6562 15.3938 23.6562C15.8375 23.6562 16.2875 23.6063 16.7438 23.5125C18.4188 23.1562 19.7813 22.2188 20.6313 21.5C21.1375 21.0688 22.3563 19.9313 22.8 18.7C23.2998 17.2882 22.8005 16.0575 22.5317 15.3947L22.5313 15.3938C22.5188 15.3562 22.5 15.3125 22.4813 15.275C23.5125 13.9062 23.725 12.375 23.5688 11.025C26.2563 9.9375 29.1 9.3875 32.0563 9.3875C35.4875 9.3875 38.7438 10.1562 41.6625 11.525C41.725 11.5563 41.7875 11.5875 41.8563 11.6188C41.7063 12.3438 41.6313 13.0813 41.5625 13.7625C41.5438 13.9437 41.5188 14.1625 41.4938 14.3813C41.0875 14.6 40.725 14.8938 40.4375 15.2688C39.7688 16.1188 39.5375 17.2187 39.7563 18.5437C39.8589 19.1594 40.0431 19.7867 40.2076 20.3469L40.225 20.4062C40.325 20.7313 40.4688 21.2188 40.4938 21.4062C40.5063 21.6562 40.4625 21.9625 39.8813 22.6188C39.85 22.6563 39.8125 22.7 39.7688 22.7437L39.7637 22.7493C39.0234 23.5649 37.3015 25.4618 37.9625 27.9187C38.4188 29.6125 39.8313 30.85 42.1625 31.5938C43.8125 32.1187 44.4375 32.725 44.6625 33.0375C44.85 33.2937 44.9188 33.5562 44.9 33.9125C44.8938 34.0375 44.8563 34.275 44.8188 34.4812C44.7438 34.9562 44.65 35.55 44.6625 36.1687C44.7063 37.6937 45.4063 38.6062 45.9813 39.1C46.7438 39.75 47.7188 40.0625 48.8813 40.0312C49.6438 40.0062 50.5313 39.8312 51.5875 39.4813C51.8438 39.4 52.0688 39.3313 52.2688 39.275C52.375 39.8813 52.6375 40.425 53.025 40.8562L53.0625 40.7812C52.8125 41.4562 52.5063 42.1188 52.1688 42.7625Z"
              fill="url(#paint1_linear_3_370)"/>
        <path d="M46.1313 21C46.0813 20.2563 45.8563 19.5 45.6375 18.775C45.6344 18.7656 45.6313 18.7578 45.6281 18.75C45.625 18.7422 45.6219 18.7344 45.6188 18.725C46.1125 18.2812 46.525 17.6438 46.7813 16.775C46.9375 16.25 47.025 15.6875 47.0938 15.1C50.6188 18.2313 53.1688 22.4375 54.2125 27.2C54.4813 28.4187 54.65 29.675 54.7125 30.9563C54.7563 31.8188 54.75 32.6687 54.7 33.5062C54.3188 33.4187 53.925 33.375 53.5188 33.375C52.5688 33.375 51.5625 33.5938 50.5563 33.8875C50.575 32.3688 50.1313 30.9375 49.25 29.7188C48.1688 28.2188 46.4563 27.0688 44.15 26.2938C44.75 25.6313 46.3125 23.7812 46.1313 21Z"
              fill="url(#paint2_linear_3_370)"/>
        <path d="M21.9313 47.725C21.8375 47.7437 21.5625 47.7438 21.3813 47.7438C20.775 47.7375 19.85 47.7313 18.9 48.175C18.3125 48.4437 17.8125 48.8375 17.3938 49.3438C13.45 45.9875 10.6625 41.3125 9.73126 36.0125C10.4813 35.9062 11.2688 35.65 12.0875 35.2375C12.975 34.7937 13.7438 34.3625 14.425 33.975C15.0938 33.6 15.975 33.1063 16.4563 32.9313C17.575 34.0125 18.7563 34.5375 19.9688 34.4875C20.1625 34.4813 20.35 34.4563 20.5375 34.4188C21.1313 34.5938 21.8063 34.6187 22.55 34.4312C22.8438 34.4937 23.3625 34.6437 23.725 34.75C24.6313 35.0187 25.6438 35.3188 26.6688 35.3938C26.7938 35.5438 26.9313 35.6875 27.0938 35.825C27.55 36.2125 28.2625 36.6 29.2875 36.6437C29.4688 36.9562 29.7 37.275 30.025 37.5812L30.05 37.6063C29.2813 38.1688 28.9563 38.875 28.8188 39.4375C28.6813 40.0125 28.5313 41.5 30.075 42.7812C30.1436 42.8396 30.2122 42.896 30.2798 42.9515C30.3353 42.9972 30.3902 43.0424 30.4438 43.0875C30.2688 43.4312 30.125 43.7812 29.9938 44.1188C29.7938 44.6375 29.5625 44.8 28.325 45.2437C27.5438 45.525 26.4875 45.9062 25.6375 46.7125C25.4938 46.6875 25.3438 46.6625 25.1875 46.65C24.3938 46.5812 23.1875 46.7188 21.9375 47.7125C21.9419 47.7169 21.9401 47.7182 21.9364 47.7208L21.9338 47.7227L21.9313 47.725Z"
              fill="url(#paint3_linear_3_370)"/>
        <path d="M15.825 17.7375V16.2188C16.1313 15.9062 16.4438 15.6062 16.7625 15.3125C16.7938 16.0125 16.9625 16.6062 17.1375 17.0687C16.6625 17.5 15.9688 17.9687 15.4688 18.0187L15.4674 18.0189C15.3929 18.0251 15.3244 18.0308 15.2188 17.9563L15.825 17.7375Z"
              fill="url(#paint4_linear_3_370)"/>
    </g>
    <defs>
        <filter id="filter0_i_3_370" x="4" y="4" width="56.125" height="56.125" filterUnits="userSpaceOnUse"
                color-interpolation-filters="sRGB">
            <feFlood flood-opacity="0" result="BackgroundImageFix"/>
            <feBlend mode="normal" in="SourceGraphic" in2="BackgroundImageFix" result="shape"/>
            <feColorMatrix in="SourceAlpha" type="matrix" values="0 0 0 0 0 0 0 0 0 0 0 0 0 0 0 0 0 0 127 0"
                           result="hardAlpha"/>
            <feOffset/>
            <feGaussianBlur stdDeviation="2"/>
            <feComposite in2="hardAlpha" operator="arithmetic" k2="-1" k3="1"/>
            <feColorMatrix type="matrix" values="0 0 0 0 0 0 0 0 0 0.232001 0 0 0 0 0.4 0 0 0 0.6 0"/>
            <feBlend mode="normal" in2="shape" result="effect1_innerShadow_3_370"/>
        </filter>
        <linearGradient id="paint0_linear_3_370" x1="4.10626" y1="4.125" x2="60.1063" y2="60.125"
                        gradientUnits="userSpaceOnUse">
            <stop stop-color="#0093FD"/>
            <stop offset="1" stop-color="#0047FD"/>
        </linearGradient>
        <linearGradient id="paint1_linear_3_370" x1="4.10626" y1="4.125" x2="60.1063" y2="60.125"
                        gradientUnits="userSpaceOnUse">
            <stop stop-color="#00EEFD"/>
            <stop offset="1" stop-color="#0074FD"/>
        </linearGradient>
        <linearGradient id="paint2_linear_3_370" x1="47.5" y1="15.5" x2="53.5" y2="32" gradientUnits="userSpaceOnUse">
            <stop stop-color="#1AB369"/>
            <stop offset="1" stop-color="#1AB33B"/>
        </linearGradient>
        <linearGradient id="paint3_linear_3_370" x1="10" y1="36" x2="29" y2="45.5" gradientUnits="userSpaceOnUse">
            <stop stop-color="#1AB372"/>
            <stop offset="1" stop-color="#1AB34B"/>
        </linearGradient>
        <linearGradient id="paint4_linear_3_370" x1="15.5" y1="15.5" x2="17" y2="17.5" gradientUnits="userSpaceOnUse">
            <stop stop-color="#1AB37B"/>
            <stop offset="1" stop-color="#1AB3A9"/>
        </linearGradient>
    </defs>
</svg>
