<svg width="auto" height="auto" viewBox="0 0 64 64" fill="none" xmlns="http://www.w3.org/2000/svg">
    <path d="M26.368 7.46638C28.4294 6.62941 29.4602 6.21092 30.5254 6.04463C31.4699 5.89719 32.4315 5.89625 33.3763 6.04184C34.4418 6.20605 35.4733 6.62252 37.5364 7.45546L54.1955 14.1814C55.8223 14.8381 56.6357 15.1665 57.2338 15.7125C57.7623 16.195 58.1682 16.7965 58.4177 17.4672C58.7 18.2262 58.7 19.1034 58.7 20.8577V41.5342C58.7 43.8695 58.7 45.0372 58.3245 46.048C57.9928 46.9412 57.453 47.7426 56.75 48.3858C55.9544 49.1136 54.8724 49.5525 52.7083 50.4303L37.9751 56.4062C35.7503 57.3086 34.6378 57.7598 33.4884 57.9379C32.4692 58.0958 31.4318 58.0952 30.4128 57.9359C29.2636 57.7563 28.1518 57.3036 25.9281 56.3983L11.2902 50.4388C9.12667 49.5579 8.04493 49.1175 7.25017 48.3884C6.54789 47.7441 6.00918 46.9418 5.67867 46.0479C5.30463 45.0363 5.30646 43.8683 5.31011 41.5324L5.34244 20.8393C5.34517 19.0912 5.34654 18.2172 5.62842 17.4606C5.8775 16.792 6.28198 16.1922 6.8085 15.7108C7.40433 15.1659 8.21418 14.8371 9.83387 14.1795L26.368 7.46638Z"
          fill="url(#paint0_linear_21_1402)"/>
    <path d="M35.7571 6.70135C33.3475 5.72455 30.6525 5.72455 28.2429 6.70135L22.4015 9.06948L47.9808 19.0169L56.9789 15.5403C56.6165 15.2397 56.2051 14.9911 55.7533 14.8079L35.7571 6.70135Z"
          fill="url(#paint1_linear_21_1402)"/>
    <path d="M29.9995 57.8352V28.7069L5.33333 19.1769V44.8733C5.33333 46.7736 6.48562 48.484 8.24672 49.1981L28.2429 57.3045C28.8149 57.5365 29.4029 57.7133 29.9995 57.8352Z"
          fill="url(#paint2_linear_21_1402)"/>
    <path d="M58.6667 19.1765L33.9995 28.7069V57.8355C34.5963 57.7136 35.1848 57.5365 35.7571 57.3045L55.7533 49.1981C57.5144 48.484 58.6667 46.7736 58.6667 44.8733V19.1765Z"
          fill="url(#paint3_linear_21_1402)"/>
    <path d="M7.02061 15.5406L31.9995 25.1916L42.4448 21.1559L16.9982 11.26L8.24672 14.8079C7.79488 14.9911 7.38312 15.2399 7.02061 15.5406Z"
          fill="url(#paint4_linear_21_1402)"/>
    <defs>
        <linearGradient id="paint0_linear_21_1402" x1="5" y1="5" x2="59" y2="59" gradientUnits="userSpaceOnUse">
            <stop stop-color="#EAFE01"/>
            <stop offset="1" stop-color="#FDA900"/>
        </linearGradient>
        <linearGradient id="paint1_linear_21_1402" x1="5" y1="6" x2="68" y2="32" gradientUnits="userSpaceOnUse">
            <stop stop-color="#0084FF"/>
            <stop offset="1" stop-color="#BC05FF"/>
        </linearGradient>
        <linearGradient id="paint2_linear_21_1402" x1="5" y1="6" x2="68" y2="32" gradientUnits="userSpaceOnUse">
            <stop stop-color="#0084FF"/>
            <stop offset="1" stop-color="#BC05FF"/>
        </linearGradient>
        <linearGradient id="paint3_linear_21_1402" x1="5" y1="6" x2="68" y2="32" gradientUnits="userSpaceOnUse">
            <stop stop-color="#0084FF"/>
            <stop offset="1" stop-color="#BC05FF"/>
        </linearGradient>
        <linearGradient id="paint4_linear_21_1402" x1="5" y1="6" x2="68" y2="32" gradientUnits="userSpaceOnUse">
            <stop stop-color="#0084FF"/>
            <stop offset="1" stop-color="#BC05FF"/>
        </linearGradient>
    </defs>
</svg>
