<svg width="auto" height="auto" viewBox="0 0 48 48" fill="none" xmlns="http://www.w3.org/2000/svg">
    <circle cx="24" cy="24" r="24" fill="url(#paint0_linear_69_267)"/>
    <g filter="url(#filter0_d_69_267)">
        <path d="M25.85 10.35C25.85 9.60442 25.2456 9 24.5 9C23.7544 9 23.15 9.60442 23.15 10.35V21.15C23.15 21.8956 23.7544 22.5 24.5 22.5C25.2456 22.5 25.85 21.8956 25.85 21.15V10.35ZM31.2378 13.0516C30.5917 12.6795 29.7663 12.9016 29.3942 13.5477C29.022 14.1938 29.2441 15.0192 29.8903 15.3913C31.9507 16.5781 33.5621 18.4118 34.4742 20.6079C35.386 22.804 35.5479 25.2398 34.9342 27.5371C34.3206 29.8345 32.9658 31.865 31.0803 33.314C29.1946 34.7629 26.8836 35.5487 24.5056 35.55C22.1277 35.5513 19.8159 34.7677 17.9287 33.3209C16.0416 31.874 14.6848 29.8447 14.0687 27.5481C13.4527 25.2513 13.6119 22.8154 14.5216 20.6184C15.4313 18.4213 17.0407 16.5859 19.1 15.397C19.7457 15.0242 19.9669 14.1985 19.5941 13.5528C19.2214 12.9071 18.3957 12.6859 17.75 13.0587C15.1758 14.5449 13.1641 16.8391 12.027 19.5854C10.8898 22.3318 10.6908 25.3766 11.4609 28.2476C12.231 31.1184 13.927 33.655 16.2859 35.4636C18.6448 37.2721 21.5347 38.2516 24.507 38.25C27.4795 38.2486 30.3684 37.2659 32.7253 35.455C35.0822 33.644 36.7756 31.1056 37.5428 28.2339C38.3098 25.3622 38.1076 22.3175 36.9677 19.5724C35.8276 16.8273 33.8136 14.5351 31.2378 13.0516Z"
              fill="white"/>
        <path d="M31.3625 12.835C30.5969 12.394 29.6185 12.6572 29.1776 13.4229C28.7364 14.1887 28.9997 15.167 29.7655 15.608C31.7783 16.7673 33.3523 18.5586 34.2433 20.7038C35.1341 22.8491 35.2921 25.2285 34.6927 27.4726C34.0933 29.7168 32.7698 31.7003 30.9279 33.1158C29.0859 34.5311 26.8284 35.2988 24.5054 35.3C22.1826 35.3012 19.9243 34.5358 18.0809 33.1225C16.2374 31.7091 14.912 29.7268 14.3102 27.4833C13.7084 25.2397 13.8639 22.8602 14.7526 20.714L14.5216 20.6184L14.7526 20.714C15.6412 18.5678 17.2133 16.7749 19.225 15.6135C19.9903 15.1716 20.2525 14.1931 19.8106 13.4278C19.3688 12.6626 18.3903 12.4004 17.625 12.8422L17.625 12.8422C15.0031 14.3559 12.9542 16.6926 11.796 19.4898C10.6378 22.287 10.4351 25.3882 11.2195 28.3123C12.0038 31.2363 13.7312 33.8199 16.1338 35.662L16.2859 35.4636L16.1338 35.662C18.5364 37.5039 21.4797 38.5017 24.5072 38.5C27.5347 38.4985 30.477 37.4977 32.8776 35.6532C35.2782 33.8087 37.003 31.2233 37.7843 28.2984L37.7843 28.2984C38.5655 25.3735 38.3596 22.2725 37.1986 19.4765L36.9677 19.5724L37.1986 19.4765C36.0374 16.6806 33.986 14.346 31.3625 12.835ZM26.1 10.35C26.1 9.46635 25.3836 8.75 24.5 8.75C23.6164 8.75 22.9 9.46635 22.9 10.35V21.15C22.9 22.0336 23.6164 22.75 24.5 22.75C25.3836 22.75 26.1 22.0337 26.1 21.15V10.35Z"
              stroke="white" stroke-width="0.5"/>
    </g>
    <defs>
        <filter id="filter0_d_69_267" x="8.5" y="7.5" width="32" height="34.25" filterUnits="userSpaceOnUse"
                color-interpolation-filters="sRGB">
            <feFlood flood-opacity="0" result="BackgroundImageFix"/>
            <feColorMatrix in="SourceAlpha" type="matrix" values="0 0 0 0 0 0 0 0 0 0 0 0 0 0 0 0 0 0 127 0"
                           result="hardAlpha"/>
            <feOffset dy="1"/>
            <feGaussianBlur stdDeviation="1"/>
            <feComposite in2="hardAlpha" operator="out"/>
            <feColorMatrix type="matrix" values="0 0 0 0 0 0 0 0 0 0 0 0 0 0 0 0 0 0 0.4 0"/>
            <feBlend mode="normal" in2="BackgroundImageFix" result="effect1_dropShadow_69_267"/>
            <feBlend mode="normal" in="SourceGraphic" in2="effect1_dropShadow_69_267" result="shape"/>
        </filter>
        <linearGradient id="paint0_linear_69_267" x1="0" y1="0" x2="48" y2="48" gradientUnits="userSpaceOnUse">
            <stop stop-color="#FF0400"/>
            <stop offset="1" stop-color="#CC2200"/>
        </linearGradient>
    </defs>
</svg>
