<svg width="auto" height="auto" viewBox="0 0 64 64" fill="none" xmlns="http://www.w3.org/2000/svg">
    <path d="M14 20.25C14 16.7982 16.7982 14 20.25 14H43.75C47.2018 14 50 16.7982 50 20.25V43.75C50 47.2018 47.2018 50 43.75 50H20.25C16.7982 50 14 47.2018 14 43.75V20.25ZM25 23.75C25 22.6454 24.1046 21.75 23 21.75C21.8954 21.75 21 22.6454 21 23.75C21 24.8546 21.8954 25.75 23 25.75C24.1046 25.75 25 24.8546 25 23.75ZM25 31.75C25 30.6454 24.1046 29.75 23 29.75C21.8954 29.75 21 30.6454 21 31.75C21 32.8546 21.8954 33.75 23 33.75C24.1046 33.75 25 32.8546 25 31.75ZM23 41.75C24.1046 41.75 25 40.8546 25 39.75C25 38.6454 24.1046 37.75 23 37.75C21.8954 37.75 21 38.6454 21 39.75C21 40.8546 21.8954 41.75 23 41.75ZM27 23.75C27 24.4404 27.5596 25 28.25 25H41.75C42.4404 25 43 24.4404 43 23.75C43 23.0596 42.4404 22.5 41.75 22.5H28.25C27.5596 22.5 27 23.0596 27 23.75ZM28.25 30.5C27.5596 30.5 27 31.0596 27 31.75C27 32.4404 27.5596 33 28.25 33H41.75C42.4404 33 43 32.4404 43 31.75C43 31.0596 42.4404 30.5 41.75 30.5H28.25ZM27 39.75C27 40.4404 27.5596 41 28.25 41H41.75C42.4404 41 43 40.4404 43 39.75C43 39.0596 42.4404 38.5 41.75 38.5H28.25C27.5596 38.5 27 39.0596 27 39.75Z"
          fill="url(#paint0_linear_21_2745)"/>
    <path d="M25 23.75C25 22.6454 24.1046 21.75 23 21.75C21.8954 21.75 21 22.6454 21 23.75C21 24.8546 21.8954 25.75 23 25.75C24.1046 25.75 25 24.8546 25 23.75Z"
          fill="white"/>
    <path d="M27 23.75C27 24.4404 27.5596 25 28.25 25H41.75C42.4404 25 43 24.4404 43 23.75C43 23.0596 42.4404 22.5 41.75 22.5H28.25C27.5596 22.5 27 23.0596 27 23.75Z"
          fill="white"/>
    <path d="M25 31.75C25 30.6454 24.1046 29.75 23 29.75C21.8954 29.75 21 30.6454 21 31.75C21 32.8546 21.8954 33.75 23 33.75C24.1046 33.75 25 32.8546 25 31.75Z"
          fill="white"/>
    <path d="M28.25 30.5C27.5596 30.5 27 31.0596 27 31.75C27 32.4404 27.5596 33 28.25 33H41.75C42.4404 33 43 32.4404 43 31.75C43 31.0596 42.4404 30.5 41.75 30.5H28.25Z"
          fill="white"/>
    <path d="M23 41.75C24.1046 41.75 25 40.8546 25 39.75C25 38.6454 24.1046 37.75 23 37.75C21.8954 37.75 21 38.6454 21 39.75C21 40.8546 21.8954 41.75 23 41.75Z"
          fill="white"/>
    <path d="M27 39.75C27 40.4404 27.5596 41 28.25 41H41.75C42.4404 41 43 40.4404 43 39.75C43 39.0596 42.4404 38.5 41.75 38.5H28.25C27.5596 38.5 27 39.0596 27 39.75Z"
          fill="white"/>
    <defs>
        <linearGradient id="paint0_linear_21_2745" x1="14" y1="14" x2="50" y2="50" gradientUnits="userSpaceOnUse">
            <stop stop-color="#00BFA5"/>
            <stop offset="1" stop-color="#008C7A"/>
        </linearGradient>
    </defs>
</svg>
