<svg width="auto" height="auto" viewBox="0 0 64 64" fill="none" xmlns="http://www.w3.org/2000/svg">
    <path d="M49.046 18H14.849C12.7265 18 11 19.767 11 21.939V42.5595C11 44.7315 12.7505 46.5 14.903 46.5H24.245C25.8335 46.5 27.2495 45.54 27.857 44.0475L30.5705 37.2555C30.812 36.6615 31.3745 36.279 32.003 36.279C32.63 36.279 33.191 36.663 33.428 37.248L36.1475 44.058C36.7415 45.5205 38.174 46.5015 39.7085 46.5015H49.0475C51.227 46.5015 53.0015 44.733 53.0015 42.561V21.939C52.9985 19.7685 51.2255 18 49.046 18ZM22.3595 35.9595C19.4645 35.9595 17.1095 33.6045 17.1095 30.7095C17.1095 27.8145 19.4645 25.4595 22.3595 25.4595C25.2545 25.4595 27.6095 27.8145 27.6095 30.7095C27.6095 33.6045 25.2545 35.9595 22.3595 35.9595ZM41.8265 35.9595C38.9315 35.9595 36.5765 33.6045 36.5765 30.7095C36.5765 27.8145 38.9315 25.4595 41.8265 25.4595C44.7215 25.4595 47.0765 27.8145 47.0765 30.7095C47.0765 33.6045 44.7215 35.9595 41.8265 35.9595Z"
          fill="url(#paint0_linear_21_2712)"/>
    <path d="M22.3595 35.9595C19.4645 35.9595 17.1095 33.6045 17.1095 30.7095C17.1095 27.8145 19.4645 25.4595 22.3595 25.4595C25.2545 25.4595 27.6095 27.8145 27.6095 30.7095C27.6095 33.6045 25.2545 35.9595 22.3595 35.9595Z"
          fill="white"/>
    <path d="M41.8265 35.9595C38.9315 35.9595 36.5765 33.6045 36.5765 30.7095C36.5765 27.8145 38.9315 25.4595 41.8265 25.4595C44.7215 25.4595 47.0765 27.8145 47.0765 30.7095C47.0765 33.6045 44.7215 35.9595 41.8265 35.9595Z"
          fill="white"/>
    <path d="M49.046 18H14.849C12.7265 18 11 19.767 11 21.939V42.5595C11 44.7315 12.7505 46.5 14.903 46.5H24.245C25.8335 46.5 27.2495 45.54 27.857 44.0475L30.5705 37.2555C30.812 36.6615 31.3745 36.279 32.003 36.279C32.63 36.279 33.191 36.663 33.428 37.248L36.1475 44.058C36.7415 45.5205 38.174 46.5015 39.7085 46.5015H49.0475C51.227 46.5015 53.0015 44.733 53.0015 42.561V21.939C52.9985 19.7685 51.2255 18 49.046 18ZM22.3595 35.9595C19.4645 35.9595 17.1095 33.6045 17.1095 30.7095C17.1095 27.8145 19.4645 25.4595 22.3595 25.4595C25.2545 25.4595 27.6095 27.8145 27.6095 30.7095C27.6095 33.6045 25.2545 35.9595 22.3595 35.9595ZM41.8265 35.9595C38.9315 35.9595 36.5765 33.6045 36.5765 30.7095C36.5765 27.8145 38.9315 25.4595 41.8265 25.4595C44.7215 25.4595 47.0765 27.8145 47.0765 30.7095C47.0765 33.6045 44.7215 35.9595 41.8265 35.9595Z"
          stroke="url(#paint1_linear_21_2712)" stroke-width="3"/>
    <path d="M22.3595 35.9595C19.4645 35.9595 17.1095 33.6045 17.1095 30.7095C17.1095 27.8145 19.4645 25.4595 22.3595 25.4595C25.2545 25.4595 27.6095 27.8145 27.6095 30.7095C27.6095 33.6045 25.2545 35.9595 22.3595 35.9595Z"
          stroke="url(#paint2_linear_21_2712)" stroke-width="3"/>
    <path d="M41.8265 35.9595C38.9315 35.9595 36.5765 33.6045 36.5765 30.7095C36.5765 27.8145 38.9315 25.4595 41.8265 25.4595C44.7215 25.4595 47.0765 27.8145 47.0765 30.7095C47.0765 33.6045 44.7215 35.9595 41.8265 35.9595Z"
          stroke="url(#paint3_linear_21_2712)" stroke-width="3"/>
    <defs>
        <linearGradient id="paint0_linear_21_2712" x1="10.9655" y1="18.4565" x2="52.9655" y2="46.4565"
                        gradientUnits="userSpaceOnUse">
            <stop stop-color="#FF3D59"/>
            <stop offset="1" stop-color="#FCFB2C"/>
        </linearGradient>
        <linearGradient id="paint1_linear_21_2712" x1="10.9655" y1="18.4565" x2="52.9655" y2="46.4565"
                        gradientUnits="userSpaceOnUse">
            <stop stop-color="#9E0017"/>
            <stop offset="1" stop-color="#929102"/>
        </linearGradient>
        <linearGradient id="paint2_linear_21_2712" x1="10.9655" y1="18.4565" x2="52.9655" y2="46.4565"
                        gradientUnits="userSpaceOnUse">
            <stop stop-color="#9E0017"/>
            <stop offset="1" stop-color="#929102"/>
        </linearGradient>
        <linearGradient id="paint3_linear_21_2712" x1="10.9655" y1="18.4565" x2="52.9655" y2="46.4565"
                        gradientUnits="userSpaceOnUse">
            <stop stop-color="#9E0017"/>
            <stop offset="1" stop-color="#929102"/>
        </linearGradient>
    </defs>
</svg>
