<svg width="auto" height="auto" viewBox="0 0 64 64" fill="none" xmlns="http://www.w3.org/2000/svg">
    <path d="M18.4116 43.1582L18.4117 43.158C19.1217 41.1688 18.087 38.9787 16.098 38.2671C15.9025 38.1972 15.7016 38.1433 15.4974 38.106L15.4973 38.106L9.83324 37.0729C9.66955 37.043 9.53912 36.9169 9.50415 36.7525C9.17007 35.1811 9 33.5692 9 31.9351C9 30.3021 9.16986 28.6912 9.50354 27.1207C9.53848 26.9563 9.66882 26.8302 9.83246 26.8002L15.4972 25.7643C17.5754 25.3849 18.9511 23.3914 18.5726 21.3133C18.5353 21.109 18.4815 20.908 18.4118 20.7125L18.4117 20.7123L16.475 15.2895C16.4185 15.1314 16.463 14.955 16.5869 14.8429C18.9918 12.6677 21.8286 11.02 24.9178 10.02C25.076 9.96881 25.2496 10.018 25.3577 10.1455L29.085 14.5407L29.0851 14.5407C30.4518 16.1521 32.8653 16.3495 34.4752 14.9809C34.6335 14.8463 34.7806 14.6991 34.9149 14.5408L34.9149 14.5407L38.6423 10.1455C38.7504 10.018 38.924 9.96881 39.0822 10.02C42.1714 11.02 45.0082 12.6677 47.4131 14.8429C47.537 14.955 47.5815 15.1314 47.525 15.2895L45.5884 20.7121L45.5883 20.7123C44.8783 22.7015 45.913 24.8916 47.902 25.6031C48.0975 25.6731 48.2984 25.727 48.5029 25.7643C48.503 25.7644 48.5031 25.7644 48.5032 25.7644L54.1675 26.8002C54.3312 26.8302 54.4615 26.9563 54.4965 27.1207C54.8301 28.6912 55 30.3021 55 31.9351C55 33.5692 54.8299 35.1811 54.4958 36.7525C54.4609 36.9169 54.3305 37.043 54.1668 37.0729L48.503 38.1059L48.5028 38.106C46.4246 38.4854 45.0489 40.4789 45.4274 42.557C45.4647 42.7613 45.5185 42.9624 45.5882 43.1578L45.5883 43.158L47.525 48.5808C47.5815 48.7389 47.537 48.9153 47.4131 49.0274C45.0082 51.2026 42.1714 52.8503 39.0822 53.8503C38.924 53.9015 38.7504 53.8523 38.6423 53.7248L34.915 49.3296L34.9149 49.3296C33.5482 47.7182 31.1347 47.5208 29.5248 48.8894C29.3665 49.0239 29.2194 49.1712 29.0851 49.3295L29.0851 49.3296L25.3577 53.7248C25.2496 53.8523 25.076 53.9015 24.9178 53.8503C21.8286 52.8503 18.9918 51.2026 16.5869 49.0274C16.463 48.9153 16.4185 48.7389 16.475 48.5808L18.4116 43.1582Z"
          fill="url(#paint0_linear_21_2652)" stroke="url(#paint1_linear_21_2652)" stroke-width="2"/>
    <circle cx="32" cy="32" r="9" fill="white" stroke="url(#paint2_linear_21_2652)" stroke-width="4"/>
    <defs>
        <linearGradient id="paint0_linear_21_2652" x1="8" y1="9" x2="56" y2="55" gradientUnits="userSpaceOnUse">
            <stop stop-color="#1AC7E6"/>
            <stop offset="1" stop-color="#4A47EB"/>
        </linearGradient>
        <linearGradient id="paint1_linear_21_2652" x1="8" y1="9" x2="56" y2="55" gradientUnits="userSpaceOnUse">
            <stop stop-color="#149FB8"/>
            <stop offset="1" stop-color="#1714B8"/>
        </linearGradient>
        <linearGradient id="paint2_linear_21_2652" x1="23" y1="23" x2="41" y2="41" gradientUnits="userSpaceOnUse">
            <stop stop-color="#FDA900"/>
            <stop offset="1" stop-color="#FF7A00"/>
        </linearGradient>
    </defs>
</svg>
