<svg width="auto" height="auto" viewBox="0 0 48 46" fill="none" xmlns="http://www.w3.org/2000/svg">
    <path d="M10.4116 34.1582L10.4117 34.158C11.1217 32.1688 10.087 29.9787 8.09805 29.2671C7.90252 29.1972 7.70157 29.1433 7.49745 29.106L7.49727 29.106L1.83324 28.0729C1.66955 28.043 1.53912 27.9169 1.50415 27.7525C1.17007 26.1811 1 24.5692 1 22.9351C1 21.3021 1.16986 19.6912 1.50354 18.1207C1.53848 17.9563 1.66882 17.8302 1.83246 17.8002L7.4972 16.7643C9.57544 16.3849 10.9511 14.3914 10.5726 12.3133C10.5353 12.109 10.4815 11.908 10.4118 11.7125L10.4117 11.7123L8.47496 6.28952C8.41847 6.13136 8.46301 5.95497 8.58695 5.84287C10.9918 3.66769 13.8286 2.01999 16.9178 1.02C17.076 0.968815 17.2496 1.018 17.3577 1.14546L21.085 5.54065L21.0851 5.5407C22.4518 7.15214 24.8653 7.34948 26.4752 5.98088C26.6335 5.84634 26.7806 5.69913 26.9149 5.54075L26.9149 5.54071L30.6423 1.14546C30.7504 1.018 30.924 0.968815 31.0822 1.02C34.1714 2.01999 37.0082 3.66769 39.4131 5.84287C39.537 5.95496 39.5815 6.13136 39.525 6.28953L37.5884 11.7121L37.5883 11.7123C36.8783 13.7015 37.913 15.8916 39.902 16.6031C40.0975 16.6731 40.2984 16.727 40.5029 16.7643C40.503 16.7644 40.5031 16.7644 40.5032 16.7644L46.1675 17.8002C46.3312 17.8302 46.4615 17.9563 46.4965 18.1207C46.8301 19.6912 47 21.3021 47 22.9351C47 24.5692 46.8299 26.1811 46.4958 27.7525C46.4609 27.9169 46.3305 28.043 46.1668 28.0729L40.503 29.1059L40.5028 29.106C38.4246 29.4854 37.0489 31.4789 37.4274 33.557C37.4647 33.7613 37.5185 33.9624 37.5882 34.1578L37.5883 34.158L39.525 39.5808C39.5815 39.7389 39.537 39.9153 39.4131 40.0274C37.0082 42.2026 34.1714 43.8503 31.0822 44.8503C30.924 44.9015 30.7504 44.8523 30.6423 44.7248L26.915 40.3296L26.9149 40.3296C25.5482 38.7182 23.1347 38.5208 21.5248 39.8894C21.3665 40.0239 21.2194 40.1712 21.0851 40.3295L21.0851 40.3296L17.3577 44.7248C17.2496 44.8523 17.076 44.9015 16.9178 44.8503C13.8286 43.8503 10.9918 42.2026 8.58695 40.0274C8.46301 39.9153 8.41847 39.7389 8.47496 39.5808L10.4116 34.1582Z"
          fill="url(#paint0_linear_22_353)" stroke="url(#paint1_linear_22_353)" stroke-width="2"/>
    <circle cx="24" cy="23" r="9" fill="white" stroke="url(#paint2_linear_22_353)" stroke-width="4"/>
    <defs>
        <linearGradient id="paint0_linear_22_353" x1="2.86102e-06" y1="-4.88758e-06" x2="48" y2="46"
                        gradientUnits="userSpaceOnUse">
            <stop stop-color="#1AC7E6"/>
            <stop offset="1" stop-color="#4A47EB"/>
        </linearGradient>
        <linearGradient id="paint1_linear_22_353" x1="2.86102e-06" y1="-4.88758e-06" x2="48" y2="46"
                        gradientUnits="userSpaceOnUse">
            <stop stop-color="#149FB8"/>
            <stop offset="1" stop-color="#1714B8"/>
        </linearGradient>
        <linearGradient id="paint2_linear_22_353" x1="15" y1="14" x2="33" y2="32" gradientUnits="userSpaceOnUse">
            <stop stop-color="#FDA900"/>
            <stop offset="1" stop-color="#FF7A00"/>
        </linearGradient>
    </defs>
</svg>
