<svg width="auto" height="auto" viewBox="0 0 64 64" fill="none" xmlns="http://www.w3.org/2000/svg">
    <path d="M14.0488 34.3299L13.4206 34.7356L14.0487 34.3298C12.7515 32.3216 12.75 30.235 12.75 29.8775V29.4464C12.75 27.9572 13.9572 26.75 15.4464 26.75H23.8737C23.4713 27.7553 23.25 28.8524 23.25 30C23.25 31.9698 23.9014 33.7879 24.9995 35.25H24.4464C22.3588 35.25 20.5131 36.2827 19.3912 37.8624C16.6597 37.2132 15.0183 35.8308 14.0488 34.3299ZM40.9512 46.3298L41.5812 46.7368L40.9512 46.3299C39.627 48.3799 37.0185 50.25 32 50.25C26.9815 50.25 24.373 48.3799 23.0488 46.3299L22.4188 46.7368L23.0488 46.3298C21.7515 44.3216 21.75 42.235 21.75 41.8775V41.4464C21.75 39.9572 22.9572 38.75 24.4464 38.75H39.5536C41.0428 38.75 42.25 39.9572 42.25 41.4464V41.8775C42.25 42.235 42.2485 44.3216 40.9512 46.3298ZM28.25 18C28.25 20.8995 25.8995 23.25 23 23.25C20.1005 23.25 17.75 20.8995 17.75 18C17.75 15.1005 20.1005 12.75 23 12.75C25.8995 12.75 28.25 15.1005 28.25 18ZM46.25 18C46.25 20.8995 43.8995 23.25 41 23.25C38.1005 23.25 35.75 20.8995 35.75 18C35.75 15.1005 38.1005 12.75 41 12.75C43.8995 12.75 46.25 15.1005 46.25 18ZM44.6088 37.8624C43.4869 36.2827 41.6412 35.25 39.5536 35.25H39.0005C40.0986 33.7879 40.75 31.9698 40.75 30C40.75 28.8524 40.5287 27.7553 40.1263 26.75H48.5536C50.0428 26.75 51.25 27.9572 51.25 29.4464V29.8775C51.25 30.235 51.2485 32.3216 49.9512 34.3298C48.9817 35.8308 47.3403 37.2132 44.6088 37.8624ZM37.25 30C37.25 32.8995 34.8995 35.25 32 35.25C29.1005 35.25 26.75 32.8995 26.75 30C26.75 27.1005 29.1005 24.75 32 24.75C34.8995 24.75 37.25 27.1005 37.25 30Z"
          fill="url(#paint0_linear_21_2775)" stroke="url(#paint1_linear_21_2775)" stroke-width="1.5"/>
    <defs>
        <linearGradient id="paint0_linear_21_2775" x1="12" y1="12" x2="52" y2="51" gradientUnits="userSpaceOnUse">
            <stop stop-color="#E16DF5"/>
            <stop offset="1" stop-color="#4EF8E7"/>
        </linearGradient>
        <linearGradient id="paint1_linear_21_2775" x1="12" y1="12" x2="52" y2="51" gradientUnits="userSpaceOnUse">
            <stop stop-color="#CE10EF"/>
            <stop offset="1" stop-color="#0AF5DE" stop-opacity="0"/>
        </linearGradient>
    </defs>
</svg>
