<?xml version="1.0" encoding="UTF-8"?>
<svg viewBox="0 0 200 200" fill="none" xmlns="http://www.w3.org/2000/svg">
<rect width="200" height="200" fill="#7F7F7F" fill-opacity="0.2"/>
<path d="M147.894 44.1286C147.126 39.444 142.335 36.3343 137.614 37.8097L81.6138 55.3097C78.274 56.3535 76 59.4465 76 62.9455V128.003C72.6574 125.493 68.5024 124.005 64 124.005C52.9543 124.005 44 132.959 44 144.005C44 155.051 52.9543 164.005 64 164.005C75.0457 164.005 84 155.051 84 144.005V86.946L140 69.4459V112.003C136.658 109.493 132.502 108.005 128 108.005C116.954 108.005 108 116.959 108 128.005C108 139.051 116.954 148.005 128 148.005C139.046 148.005 148 139.051 148 128.005V45.4459C148 45.4458 148 45.446 148 45.4459C148 44.9954 147.963 44.5552 147.894 44.1286Z" fill="#7F7F7F" fill-opacity="0.6"/>
</svg>
