<svg viewBox="0 0 20 20" xmlns="http://www.w3.org/2000/svg">
<path d="M4 8C4 7.44772 4.44772 7 5 7H17C17.5523 7 18 7.44772 18 8C18 8.55228 17.5523 9 17 9H5C4.44772 9 4 8.55228 4 8Z" fill="#ffffff" fill-opacity="0.4"/>
<path d="M4 4C4 3.44772 4.44772 3 5 3H17C17.5523 3 18 3.44772 18 4C18 4.55228 17.5523 5 17 5H5C4.44772 5 4 4.55228 4 4Z" fill="#ffffff" fill-opacity="0.4"/>
<path d="M4 12C4 11.4477 4.44772 11 5 11H17C17.5523 11 18 11.4477 18 12C18 12.5523 17.5523 13 17 13H5C4.44772 13 4 12.5523 4 12Z" fill="#ffffff" fill-opacity="0.4"/>
<path d="M6 16C6 15.4477 6.44772 15 7 15H17C17.5523 15 18 15.4477 18 16C18 16.5523 17.5523 17 17 17H7C6.44771 17 6 16.5523 6 16Z" fill="#ffffff"/>
<path d="M3.64426 14.2957C3.40994 14.0614 3.03005 14.0614 2.79573 14.2957C2.56142 14.53 2.56142 14.9099 2.79573 15.1443L3.6472 15.9957L2.79573 16.8472C2.56142 17.0815 2.56142 17.4614 2.79573 17.6957C3.03005 17.93 3.40995 17.93 3.64426 17.6957L4.91705 16.4229C5.03501 16.305 5.09359 16.1501 5.09278 15.9955C5.09348 15.841 5.0349 15.6864 4.91705 15.5685L3.64426 14.2957Z" fill="#ffffff"/>
</svg>
