<svg viewBox="0 0 20 20" xmlns="http://www.w3.org/2000/svg">
<path d="M4 8C4 7.44772 4.44772 7 5 7H17C17.5523 7 18 7.44772 18 8C18 8.55228 17.5523 9 17 9H5C4.44772 9 4 8.55228 4 8Z" fill="1a1a1a" fill-opacity="0.4"/>
<path d="M4 16C4 15.4477 4.44772 15 5 15H17C17.5523 15 18 15.4477 18 16C18 16.5523 17.5523 17 17 17H5C4.44772 17 4 16.5523 4 16Z" fill="1a1a1a" fill-opacity="0.4"/>
<path d="M4 12C4 11.4477 4.44772 11 5 11H17C17.5523 11 18 11.4477 18 12C18 12.5523 17.5523 13 17 13H5C4.44772 13 4 12.5523 4 12Z" fill="1a1a1a" fill-opacity="0.4"/>
<path d="M2.79573 2.29573C3.03005 2.06142 3.40994 2.06142 3.64426 2.29573L4.91705 3.56852C5.0349 3.68637 5.09348 3.84105 5.09278 3.99551C5.09359 4.15011 5.03501 4.30497 4.91705 4.42293L3.64426 5.69572C3.40995 5.93004 3.03005 5.93004 2.79573 5.69572C2.56142 5.46141 2.56142 5.08151 2.79573 4.8472L3.6472 3.99573L2.79573 3.14426C2.56142 2.90994 2.56142 2.53005 2.79573 2.29573Z" fill="1a1a1a" />
<path d="M7 3C6.44772 3 6 3.44772 6 4C6 4.55228 6.44771 5 7 5H17C17.5523 5 18 4.55228 18 4C18 3.44772 17.5523 3 17 3H7Z" fill="1a1a1a"/>
</svg>
